<svg width="70" height="65" xmlns="http://www.w3.org/2000/svg">
 <style type="text/css">.st0{fill:#c50511;}</style>

 <g>
  <title>background</title>
  <rect fill="none" id="canvas_background" height="67" width="72" y="-1" x="-1"/>
 </g>
 <g>
  <title>Layer 1</title>
  <g id="svg_1">
   <path id="svg_2" d="m13,2.4c0.6,0 1.1,-0.5 1.1,-1.1c0,-0.6 -0.5,-1.1 -1.1,-1.1c-0.6,0 -1.1,0.5 -1.1,1.1c0,0.6 0.5,1.1 1.1,1.1z" class="st0"/>
   <path id="svg_3" d="m16.4,2.4c0.6,0 1.1,-0.5 1.1,-1.1c0,-0.6 -0.5,-1.1 -1.1,-1.1c-0.6,0 -1.1,0.5 -1.1,1.1c0,0.6 0.5,1.1 1.1,1.1z" class="st0"/>
   <path id="svg_4" d="m19.7,2.4c0.6,0 1.1,-0.5 1.1,-1.1c0,-0.6 -0.5,-1.1 -1.1,-1.1c-0.6,0 -1.1,0.5 -1.1,1.1c0,0.6 0.5,1.1 1.1,1.1z" class="st0"/>
   <path id="svg_5" d="m23.1,2.4c0.6,0 1.1,-0.5 1.1,-1.1c0,-0.6 -0.5,-1.1 -1.1,-1.1c-0.6,0 -1.1,0.5 -1.1,1.1c0,0.6 0.5,1.1 1.1,1.1z" class="st0"/>
   <circle id="svg_6" r="1.1" cy="4.7" cx="9.6" class="st0"/>
   <path id="svg_7" d="m13,5.8c0.6,0 1.1,-0.5 1.1,-1.1c0,-0.6 -0.5,-1.1 -1.1,-1.1c-0.6,0 -1.1,0.5 -1.1,1.1c0,0.6 0.5,1.1 1.1,1.1z" class="st0"/>
   <circle id="svg_8" r="1.1" cy="4.7" cx="16.4" class="st0"/>
   <path id="svg_9" d="m19.7,5.8c0.6,0 1.1,-0.5 1.1,-1.1c0,-0.6 -0.5,-1.1 -1.1,-1.1c-0.6,0 -1.1,0.5 -1.1,1.1c0,0.6 0.5,1.1 1.1,1.1z" class="st0"/>
   <path id="svg_10" d="m23.1,5.8c0.6,0 1.1,-0.5 1.1,-1.1c0,-0.6 -0.5,-1.1 -1.1,-1.1c-0.6,0 -1.1,0.5 -1.1,1.1c0,0.6 0.5,1.1 1.1,1.1z" class="st0"/>
   <path id="svg_11" d="m26.5,5.8c0.6,0 1.1,-0.5 1.1,-1.1c0,-0.6 -0.5,-1.1 -1.1,-1.1c-0.6,0 -1.1,0.5 -1.1,1.1c0,0.6 0.5,1.1 1.1,1.1z" class="st0"/>
   <path id="svg_12" d="m32.1,4.7c0,0.6 0.5,1.1 1.1,1.1c0.6,0 1.1,-0.5 1.1,-1.1c0,-0.6 -0.5,-1.1 -1.1,-1.1c-0.6,0 -1.1,0.5 -1.1,1.1z" class="st0"/>
   <path id="svg_13" d="m36.5,5.8c0.6,0 1.1,-0.5 1.1,-1.1c0,-0.6 -0.5,-1.1 -1.1,-1.1c-0.6,0 -1.1,0.5 -1.1,1.1c0.1,0.6 0.5,1.1 1.1,1.1z" class="st0"/>
   <path id="svg_14" d="m6.3,9.2c0.6,0 1.1,-0.5 1.1,-1.1c-0.1,-0.6 -0.5,-1.1 -1.1,-1.1c-0.6,0 -1.1,0.5 -1.1,1.1c0,0.6 0.5,1.1 1.1,1.1z" class="st0"/>
   <path id="svg_15" d="m9.6,9.2c0.6,0 1.1,-0.5 1.1,-1.1c0,-0.6 -0.5,-1.1 -1.1,-1.1c-0.6,0 -1.1,0.5 -1.1,1.1c0,0.6 0.5,1.1 1.1,1.1z" class="st0"/>
   <path id="svg_16" d="m13,9.2c0.6,0 1.1,-0.5 1.1,-1.1c0,-0.6 -0.5,-1.1 -1.1,-1.1c-0.6,0 -1.1,0.5 -1.1,1.1c0,0.6 0.5,1.1 1.1,1.1z" class="st0"/>
   <path id="svg_17" d="m16.4,9.2c0.6,0 1.1,-0.5 1.1,-1.1c-0.1,-0.6 -0.5,-1.1 -1.1,-1.1c-0.6,0 -1.1,0.5 -1.1,1.1c0,0.6 0.5,1.1 1.1,1.1z" class="st0"/>
   <path id="svg_18" d="m19.7,9.2c0.6,0 1.1,-0.5 1.1,-1.1c0,-0.6 -0.5,-1.1 -1.1,-1.1c-0.6,0 -1.1,0.5 -1.1,1.1c0,0.6 0.5,1.1 1.1,1.1z" class="st0"/>
   <path id="svg_19" d="m23.1,9.2c0.6,0 1.1,-0.5 1.1,-1.1c0,-0.6 -0.5,-1.1 -1.1,-1.1c-0.6,0 -1.1,0.5 -1.1,1.1c0,0.6 0.5,1.1 1.1,1.1z" class="st0"/>
   <path id="svg_20" d="m26.5,9.2c0.6,0 1.1,-0.5 1.1,-1.1c0,-0.6 -0.5,-1.1 -1.1,-1.1c-0.6,0 -1.1,0.5 -1.1,1.1c0,0.6 0.5,1.1 1.1,1.1z" class="st0"/>
   <path id="svg_21" d="m29.8,9.2c0.6,0 1.1,-0.5 1.1,-1.1c0,-0.6 -0.5,-1.1 -1.1,-1.1c-0.6,0 -1.1,0.5 -1.1,1.1c0,0.6 0.5,1.1 1.1,1.1z" class="st0"/>
   <path id="svg_22" d="m33.2,9.2c0.6,0 1.1,-0.5 1.1,-1.1c0,-0.6 -0.5,-1.1 -1.1,-1.1c-0.6,0 -1.1,0.5 -1.1,1.1c0,0.6 0.5,1.1 1.1,1.1z" class="st0"/>
   <path id="svg_23" d="m36.6,9.2c0.6,0 1.1,-0.5 1.1,-1.1c0,-0.6 -0.5,-1.1 -1.1,-1.1c-0.6,0 -1.1,0.5 -1.1,1.1c0,0.6 0.4,1.1 1.1,1.1z" class="st0"/>
   <path id="svg_24" d="m39.9,9.2c0.6,0 1.1,-0.5 1.1,-1.1c0,-0.6 -0.5,-1.1 -1.1,-1.1c-0.6,0 -1.1,0.5 -1.1,1.1c0,0.6 0.5,1.1 1.1,1.1z" class="st0"/>
   <path id="svg_25" d="m43.3,9.2c0.6,0 1.1,-0.5 1.1,-1.1c0,-0.6 -0.5,-1.1 -1.1,-1.1c-0.6,0 -1.1,0.5 -1.1,1.1c0,0.6 0.5,1.1 1.1,1.1z" class="st0"/>
   <path id="svg_26" d="m2.9,12.5c0.6,0 1.1,-0.5 1.1,-1.1c0,-0.6 -0.5,-1.1 -1.1,-1.1c-0.6,0 -1.1,0.5 -1.1,1.1c0,0.6 0.5,1.1 1.1,1.1z" class="st0"/>
   <path id="svg_27" d="m6.3,12.5c0.6,0 1.1,-0.5 1.1,-1.1c0,-0.6 -0.5,-1.1 -1.1,-1.1c-0.6,0 -1.1,0.5 -1.1,1.1c0,0.6 0.5,1.1 1.1,1.1z" class="st0"/>
   <path id="svg_28" d="m9.6,12.5c0.6,0 1.1,-0.5 1.1,-1.1c0,-0.6 -0.5,-1.1 -1.1,-1.1c-0.6,0 -1.1,0.5 -1.1,1.1c0,0.6 0.5,1.1 1.1,1.1z" class="st0"/>
   <path id="svg_29" d="m13,12.5c0.6,0 1.1,-0.5 1.1,-1.1c0,-0.6 -0.5,-1.1 -1.1,-1.1c-0.6,0 -1.1,0.5 -1.1,1.1c0,0.6 0.5,1.1 1.1,1.1z" class="st0"/>
   <path id="svg_30" d="m16.4,12.5c0.6,0 1.1,-0.5 1.1,-1.1c0,-0.6 -0.5,-1.1 -1.1,-1.1c-0.6,0 -1.1,0.5 -1.1,1.1c0,0.6 0.5,1.1 1.1,1.1z" class="st0"/>
   <path id="svg_31" d="m19.7,12.5c0.6,0 1.1,-0.5 1.1,-1.1c0,-0.6 -0.5,-1.1 -1.1,-1.1c-0.6,0 -1.1,0.5 -1.1,1.1c0,0.6 0.5,1.1 1.1,1.1z" class="st0"/>
   <path id="svg_32" d="m23.1,12.5c0.6,0 1.1,-0.5 1.1,-1.1c0,-0.6 -0.5,-1.1 -1.1,-1.1c-0.6,0 -1.1,0.5 -1.1,1.1c0,0.6 0.5,1.1 1.1,1.1z" class="st0"/>
   <path id="svg_33" d="m26.5,12.5c0.6,0 1.1,-0.5 1.1,-1.1c0,-0.6 -0.5,-1.1 -1.1,-1.1c-0.6,0 -1.1,0.5 -1.1,1.1c0,0.6 0.5,1.1 1.1,1.1z" class="st0"/>
   <path id="svg_34" d="m29.8,12.5c0.6,0 1.1,-0.5 1.1,-1.1c0,-0.6 -0.5,-1.1 -1.1,-1.1c-0.6,0 -1.1,0.5 -1.1,1.1c0,0.6 0.5,1.1 1.1,1.1z" class="st0"/>
   <path id="svg_35" d="m33.2,12.5c0.6,0 1.1,-0.5 1.1,-1.1c0,-0.6 -0.5,-1.1 -1.1,-1.1c-0.6,0 -1.1,0.5 -1.1,1.1c0,0.6 0.5,1.1 1.1,1.1z" class="st0"/>
   <path id="svg_36" d="m36.6,12.5c0.6,0 1.1,-0.5 1.1,-1.1c0,-0.6 -0.5,-1.1 -1.1,-1.1c-0.6,0 -1.1,0.5 -1.1,1.1c0,0.6 0.4,1.1 1.1,1.1z" class="st0"/>
   <path id="svg_37" d="m39.9,12.5c0.6,0 1.1,-0.5 1.1,-1.1c0,-0.6 -0.5,-1.1 -1.1,-1.1c-0.6,0 -1.1,0.5 -1.1,1.1c0,0.6 0.5,1.1 1.1,1.1z" class="st0"/>
   <path id="svg_38" d="m43.3,12.5c0.6,0 1.1,-0.5 1.1,-1.1c0,-0.6 -0.5,-1.1 -1.1,-1.1c-0.6,0 -1.1,0.5 -1.1,1.1c0,0.6 0.5,1.1 1.1,1.1z" class="st0"/>
   <path id="svg_39" d="m2.9,15.9c0.6,0 1.1,-0.5 1.1,-1.1c0,-0.6 -0.5,-1.1 -1.1,-1.1c-0.6,0 -1.1,0.5 -1.1,1.1c0,0.6 0.5,1.1 1.1,1.1z" class="st0"/>
   <path id="svg_40" d="m6.3,15.9c0.6,0 1.1,-0.5 1.1,-1.1c0,-0.6 -0.5,-1.1 -1.1,-1.1c-0.6,0 -1.1,0.5 -1.1,1.1c0,0.6 0.5,1.1 1.1,1.1z" class="st0"/>
   <path id="svg_41" d="m9.6,15.9c0.6,0 1.1,-0.5 1.1,-1.1c0,-0.6 -0.5,-1.1 -1.1,-1.1c-0.6,0 -1.1,0.5 -1.1,1.1c0,0.6 0.5,1.1 1.1,1.1z" class="st0"/>
   <path id="svg_42" d="m13,15.9c0.6,0 1.1,-0.5 1.1,-1.1c0,-0.6 -0.5,-1.1 -1.1,-1.1c-0.6,0 -1.1,0.5 -1.1,1.1c0,0.6 0.5,1.1 1.1,1.1z" class="st0"/>
   <path id="svg_43" d="m16.4,15.9c0.6,0 1.1,-0.5 1.1,-1.1c0,-0.6 -0.5,-1.1 -1.1,-1.1c-0.6,0 -1.1,0.5 -1.1,1.1c0,0.6 0.5,1.1 1.1,1.1z" class="st0"/>
   <path id="svg_44" d="m19.7,15.9c0.6,0 1.1,-0.5 1.1,-1.1c0,-0.6 -0.5,-1.1 -1.1,-1.1c-0.6,0 -1.1,0.5 -1.1,1.1c0,0.6 0.5,1.1 1.1,1.1z" class="st0"/>
   <path id="svg_45" d="m23.1,15.9c0.6,0 1.1,-0.5 1.1,-1.1c0,-0.6 -0.5,-1.1 -1.1,-1.1c-0.6,0 -1.1,0.5 -1.1,1.1c0,0.6 0.5,1.1 1.1,1.1z" class="st0"/>
   <path id="svg_46" d="m26.5,15.9c0.6,0 1.1,-0.5 1.1,-1.1c0,-0.6 -0.5,-1.1 -1.1,-1.1c-0.6,0 -1.1,0.5 -1.1,1.1c0,0.6 0.5,1.1 1.1,1.1z" class="st0"/>
   <path id="svg_47" d="m29.8,15.9c0.6,0 1.1,-0.5 1.1,-1.1c0,-0.6 -0.5,-1.1 -1.1,-1.1c-0.6,0 -1.1,0.5 -1.1,1.1c0,0.6 0.5,1.1 1.1,1.1z" class="st0"/>
   <path id="svg_48" d="m33.2,15.9c0.6,0 1.1,-0.5 1.1,-1.1c0,-0.6 -0.5,-1.1 -1.1,-1.1c-0.6,0 -1.1,0.5 -1.1,1.1c0,0.6 0.5,1.1 1.1,1.1z" class="st0"/>
   <path id="svg_49" d="m36.6,15.9c0.6,0 1.1,-0.5 1.1,-1.1c0,-0.6 -0.5,-1.1 -1.1,-1.1c-0.6,0 -1.1,0.5 -1.1,1.1c0,0.6 0.4,1.1 1.1,1.1z" class="st0"/>
   <path id="svg_50" d="m39.9,15.9c0.6,0 1.1,-0.5 1.1,-1.1c0,-0.6 -0.5,-1.1 -1.1,-1.1c-0.6,0 -1.1,0.5 -1.1,1.1c0,0.6 0.5,1.1 1.1,1.1z" class="st0"/>
   <path id="svg_51" d="m43.3,15.9c0.6,0 1.1,-0.5 1.1,-1.1c0,-0.6 -0.5,-1.1 -1.1,-1.1c-0.6,0 -1.1,0.5 -1.1,1.1c0,0.6 0.5,1.1 1.1,1.1z" class="st0"/>
   <path id="svg_52" d="m46.6,15.9c0.6,0 1.1,-0.5 1.1,-1.1c0,-0.6 -0.5,-1.1 -1.1,-1.1s-1.1,0.5 -1.1,1.1c0.1,0.6 0.5,1.1 1.1,1.1z" class="st0"/>
   <path id="svg_53" d="m2.9,19.2c0.6,0 1.1,-0.5 1.1,-1.1c0,-0.6 -0.5,-1.1 -1.1,-1.1c-0.6,0 -1.1,0.5 -1.1,1.1c0,0.7 0.5,1.1 1.1,1.1z" class="st0"/>
   <path id="svg_54" d="m6.3,17.1c-0.6,0 -1.1,0.5 -1.1,1.1c0,0.6 0.5,1.1 1.1,1.1c0.6,0 1.1,-0.5 1.1,-1.1c-0.1,-0.6 -0.5,-1.1 -1.1,-1.1z" class="st0"/>
   <path id="svg_55" d="m9.6,17.1c-0.6,0 -1.1,0.5 -1.1,1.1c0,0.6 0.5,1.1 1.1,1.1c0.6,0 1.1,-0.5 1.1,-1.1c0,-0.6 -0.5,-1.1 -1.1,-1.1z" class="st0"/>
   <path id="svg_56" d="m13,19.2c0.6,0 1.1,-0.5 1.1,-1.1c0,-0.6 -0.5,-1.1 -1.1,-1.1c-0.6,0 -1.1,0.5 -1.1,1.1c0,0.7 0.5,1.1 1.1,1.1z" class="st0"/>
   <path id="svg_57" d="m16.4,19.2c0.6,0 1.1,-0.5 1.1,-1.1c0,-0.6 -0.5,-1.1 -1.1,-1.1c-0.6,0 -1.1,0.5 -1.1,1.1c0,0.7 0.5,1.1 1.1,1.1z" class="st0"/>
   <path id="svg_58" d="m19.7,19.2c0.6,0 1.1,-0.5 1.1,-1.1c0,-0.6 -0.5,-1.1 -1.1,-1.1c-0.6,0 -1.1,0.5 -1.1,1.1c0,0.7 0.5,1.1 1.1,1.1z" class="st0"/>
   <path id="svg_59" d="m23.1,19.2c0.6,0 1.1,-0.5 1.1,-1.1c0,-0.6 -0.5,-1.1 -1.1,-1.1c-0.6,0 -1.1,0.5 -1.1,1.1c0,0.7 0.5,1.1 1.1,1.1z" class="st0"/>
   <path id="svg_60" d="m26.5,19.2c0.6,0 1.1,-0.5 1.1,-1.1c0,-0.6 -0.5,-1.1 -1.1,-1.1c-0.6,0 -1.1,0.5 -1.1,1.1c0,0.7 0.5,1.1 1.1,1.1z" class="st0"/>
   <path id="svg_61" d="m29.8,17.1c-0.6,0 -1.1,0.5 -1.1,1.1c0,0.6 0.5,1.1 1.1,1.1c0.6,0 1.1,-0.5 1.1,-1.1c0,-0.6 -0.5,-1.1 -1.1,-1.1z" class="st0"/>
   <path id="svg_62" d="m33.2,19.2c0.6,0 1.1,-0.5 1.1,-1.1c0,-0.6 -0.5,-1.1 -1.1,-1.1c-0.6,0 -1.1,0.5 -1.1,1.1c0,0.7 0.5,1.1 1.1,1.1z" class="st0"/>
   <path id="svg_63" d="m36.6,19.2c0.6,0 1.1,-0.5 1.1,-1.1c0,-0.6 -0.5,-1.1 -1.1,-1.1c-0.6,0 -1.1,0.5 -1.1,1.1c0,0.7 0.4,1.1 1.1,1.1z" class="st0"/>
   <path id="svg_64" d="m39.9,19.2c0.6,0 1.1,-0.5 1.1,-1.1c0,-0.6 -0.5,-1.1 -1.1,-1.1c-0.6,0 -1.1,0.5 -1.1,1.1c0,0.7 0.5,1.1 1.1,1.1z" class="st0"/>
   <path id="svg_65" d="m43.3,19.2c0.6,0 1.1,-0.5 1.1,-1.1c0,-0.6 -0.5,-1.1 -1.1,-1.1c-0.6,0 -1.1,0.5 -1.1,1.1c0,0.7 0.5,1.1 1.1,1.1z" class="st0"/>
   <path id="svg_66" d="m46.6,19.2c0.6,0 1.1,-0.5 1.1,-1.1c0,-0.6 -0.5,-1.1 -1.1,-1.1s-1.1,0.5 -1.1,1.1c0.1,0.7 0.5,1.1 1.1,1.1z" class="st0"/>
   <path id="svg_67" d="m2.9,20.4c-0.6,0 -1.1,0.5 -1.1,1.1c0,0.6 0.5,1.1 1.1,1.1c0.6,0 1.1,-0.5 1.1,-1.1c0,-0.6 -0.5,-1.1 -1.1,-1.1z" class="st0"/>
   <path id="svg_68" d="m6.3,22.6c0.6,0 1.1,-0.5 1.1,-1.1c0,-0.6 -0.5,-1.1 -1.1,-1.1c-0.6,0 -1.1,0.5 -1.1,1.1c0,0.6 0.5,1.1 1.1,1.1z" class="st0"/>
   <path id="svg_69" d="m9.6,22.6c0.6,0 1.1,-0.5 1.1,-1.1c0,-0.6 -0.5,-1.1 -1.1,-1.1c-0.6,0 -1.1,0.5 -1.1,1.1c0,0.6 0.5,1.1 1.1,1.1z" class="st0"/>
   <path id="svg_70" d="m13,22.6c0.6,0 1.1,-0.5 1.1,-1.1c0,-0.6 -0.5,-1.1 -1.1,-1.1c-0.6,0 -1.1,0.5 -1.1,1.1c0,0.6 0.5,1.1 1.1,1.1z" class="st0"/>
   <path id="svg_71" d="m16.4,22.6c0.6,0 1.1,-0.5 1.1,-1.1c0,-0.6 -0.5,-1.1 -1.1,-1.1c-0.6,0 -1.1,0.5 -1.1,1.1c0,0.6 0.5,1.1 1.1,1.1z" class="st0"/>
   <path id="svg_72" d="m19.7,22.6c0.6,0 1.1,-0.5 1.1,-1.1c0,-0.6 -0.5,-1.1 -1.1,-1.1c-0.6,0 -1.1,0.5 -1.1,1.1c0,0.6 0.5,1.1 1.1,1.1z" class="st0"/>
   <path id="svg_73" d="m23.1,22.6c0.6,0 1.1,-0.5 1.1,-1.1c0,-0.6 -0.5,-1.1 -1.1,-1.1c-0.6,0 -1.1,0.5 -1.1,1.1c0,0.6 0.5,1.1 1.1,1.1z" class="st0"/>
   <path id="svg_74" d="m26.5,22.6c0.6,0 1.1,-0.5 1.1,-1.1c0,-0.6 -0.5,-1.1 -1.1,-1.1c-0.6,0 -1.1,0.5 -1.1,1.1c0,0.6 0.5,1.1 1.1,1.1z" class="st0"/>
   <path id="svg_75" d="m29.8,22.6c0.6,0 1.1,-0.5 1.1,-1.1c0,-0.6 -0.5,-1.1 -1.1,-1.1c-0.6,0 -1.1,0.5 -1.1,1.1c0,0.6 0.5,1.1 1.1,1.1z" class="st0"/>
   <path id="svg_76" d="m33.2,20.4c-0.6,0 -1.1,0.5 -1.1,1.1c0,0.6 0.5,1.1 1.1,1.1c0.6,0 1.1,-0.5 1.1,-1.1c0,-0.6 -0.5,-1.1 -1.1,-1.1z" class="st0"/>
   <path id="svg_77" d="m36.6,22.6c0.6,0 1.1,-0.5 1.1,-1.1c0,-0.6 -0.5,-1.1 -1.1,-1.1c-0.6,0 -1.1,0.5 -1.1,1.1c0,0.6 0.4,1.1 1.1,1.1z" class="st0"/>
   <path id="svg_78" d="m39.9,22.6c0.6,0 1.1,-0.5 1.1,-1.1c0,-0.6 -0.5,-1.1 -1.1,-1.1c-0.6,0 -1.1,0.5 -1.1,1.1c0,0.6 0.5,1.1 1.1,1.1z" class="st0"/>
   <path id="svg_79" d="m42.2,21.5c0,0.6 0.5,1.1 1.1,1.1c0.6,0 1.1,-0.5 1.1,-1.1c0,-0.6 -0.5,-1.1 -1.1,-1.1c-0.6,0 -1.1,0.5 -1.1,1.1z" class="st0"/>
   <path id="svg_80" d="m46.6,22.6c0.6,0 1.1,-0.5 1.1,-1.1c0,-0.6 -0.5,-1.1 -1.1,-1.1s-1.1,0.5 -1.1,1.1c0.1,0.6 0.5,1.1 1.1,1.1z" class="st0"/>
   <path id="svg_81" d="m50,22.6c0.6,0 1.1,-0.5 1.1,-1.1c0,-0.6 -0.5,-1.1 -1.1,-1.1c-0.6,0 -1.1,0.5 -1.1,1.1c0,0.6 0.5,1.1 1.1,1.1z" class="st0"/>
   <path id="svg_82" d="m53.4,22.6c0.6,0 1.1,-0.5 1.1,-1.1c0,-0.6 -0.5,-1.1 -1.1,-1.1c-0.6,0 -1.1,0.5 -1.1,1.1c0,0.6 0.5,1.1 1.1,1.1z" class="st0"/>
   <path id="svg_83" d="m6.3,23.8c-0.6,0 -1.1,0.5 -1.1,1.1c0,0.6 0.5,1.1 1.1,1.1c0.6,0 1.1,-0.5 1.1,-1.1c-0.1,-0.6 -0.5,-1.1 -1.1,-1.1z" class="st0"/>
   <path id="svg_84" d="m9.6,23.8c-0.6,0 -1.1,0.5 -1.1,1.1c0,0.6 0.5,1.1 1.1,1.1c0.6,0 1.1,-0.5 1.1,-1.1c0,-0.6 -0.5,-1.1 -1.1,-1.1z" class="st0"/>
   <path id="svg_85" d="m13,23.8c-0.6,0 -1.1,0.5 -1.1,1.1c0,0.6 0.5,1.1 1.1,1.1c0.6,0 1.1,-0.5 1.1,-1.1c0,-0.6 -0.5,-1.1 -1.1,-1.1z" class="st0"/>
   <path id="svg_86" d="m16.4,23.8c-0.6,0 -1.1,0.5 -1.1,1.1c0,0.6 0.5,1.1 1.1,1.1c0.6,0 1.1,-0.5 1.1,-1.1c-0.1,-0.6 -0.5,-1.1 -1.1,-1.1z" class="st0"/>
   <path id="svg_87" d="m19.7,23.8c-0.6,0 -1.1,0.5 -1.1,1.1c0,0.6 0.5,1.1 1.1,1.1c0.6,0 1.1,-0.5 1.1,-1.1c0,-0.6 -0.5,-1.1 -1.1,-1.1z" class="st0"/>
   <path id="svg_88" d="m23.1,23.8c-0.6,0 -1.1,0.5 -1.1,1.1c0,0.6 0.5,1.1 1.1,1.1c0.6,0 1.1,-0.5 1.1,-1.1c0,-0.6 -0.5,-1.1 -1.1,-1.1z" class="st0"/>
   <path id="svg_89" d="m26.5,26c0.6,0 1.1,-0.5 1.1,-1.1c0,-0.6 -0.5,-1.1 -1.1,-1.1c-0.6,0 -1.1,0.5 -1.1,1.1c0,0.6 0.5,1.1 1.1,1.1z" class="st0"/>
   <path id="svg_90" d="m29.8,23.8c-0.6,0 -1.1,0.5 -1.1,1.1c0,0.6 0.5,1.1 1.1,1.1c0.6,0 1.1,-0.5 1.1,-1.1c0,-0.6 -0.5,-1.1 -1.1,-1.1z" class="st0"/>
   <path id="svg_91" d="m33.2,23.8c-0.6,0 -1.1,0.5 -1.1,1.1c0,0.6 0.5,1.1 1.1,1.1c0.6,0 1.1,-0.5 1.1,-1.1c0,-0.6 -0.5,-1.1 -1.1,-1.1z" class="st0"/>
   <path id="svg_92" d="m36.6,26c0.6,0 1.1,-0.5 1.1,-1.1c0,-0.6 -0.5,-1.1 -1.1,-1.1c-0.6,0 -1.1,0.5 -1.1,1.1c0,0.6 0.4,1.1 1.1,1.1z" class="st0"/>
   <path id="svg_93" d="m39.9,23.8c-0.6,0 -1.1,0.5 -1.1,1.1c0,0.6 0.5,1.1 1.1,1.1c0.6,0 1.1,-0.5 1.1,-1.1c0,-0.6 -0.5,-1.1 -1.1,-1.1z" class="st0"/>
   <path id="svg_94" d="m43.3,26c0.6,0 1.1,-0.5 1.1,-1.1c0,-0.6 -0.5,-1.1 -1.1,-1.1c-0.6,0 -1.1,0.5 -1.1,1.1c0,0.6 0.5,1.1 1.1,1.1z" class="st0"/>
   <path id="svg_95" d="m46.6,26c0.6,0 1.1,-0.5 1.1,-1.1c0,-0.6 -0.5,-1.1 -1.1,-1.1s-1.1,0.5 -1.1,1.1c0.1,0.6 0.5,1.1 1.1,1.1z" class="st0"/>
   <path id="svg_96" d="m50,23.8c-0.6,0 -1.1,0.5 -1.1,1.1c0,0.6 0.5,1.1 1.1,1.1c0.6,0 1.1,-0.5 1.1,-1.1c0,-0.6 -0.5,-1.1 -1.1,-1.1z" class="st0"/>
   <path id="svg_97" d="m53.4,26c0.6,0 1.1,-0.5 1.1,-1.1c0,-0.6 -0.5,-1.1 -1.1,-1.1c-0.6,0 -1.1,0.5 -1.1,1.1c0,0.6 0.5,1.1 1.1,1.1z" class="st0"/>
   <path id="svg_98" d="m56.7,26c0.6,0 1.1,-0.5 1.1,-1.1c0,-0.6 -0.5,-1.1 -1.1,-1.1c-0.6,0 -1.1,0.5 -1.1,1.1c0.1,0.6 0.5,1.1 1.1,1.1z" class="st0"/>
   <path id="svg_99" d="m9.6,27.2c-0.6,0 -1.1,0.5 -1.1,1.1c0,0.6 0.5,1.1 1.1,1.1c0.6,0 1.1,-0.5 1.1,-1.1c0,-0.6 -0.5,-1.1 -1.1,-1.1z" class="st0"/>
   <path id="svg_100" d="m13,27.2c-0.6,0 -1.1,0.5 -1.1,1.1c0,0.6 0.5,1.1 1.1,1.1c0.6,0 1.1,-0.5 1.1,-1.1c0,-0.6 -0.5,-1.1 -1.1,-1.1z" class="st0"/>
   <path id="svg_101" d="m23.1,27.2c-0.6,0 -1.1,0.5 -1.1,1.1c0,0.6 0.5,1.1 1.1,1.1c0.6,0 1.1,-0.5 1.1,-1.1c0,-0.6 -0.5,-1.1 -1.1,-1.1z" class="st0"/>
   <path id="svg_102" d="m26.5,29.3c0.6,0 1.1,-0.5 1.1,-1.1c0,-0.6 -0.5,-1.1 -1.1,-1.1c-0.6,0 -1.1,0.5 -1.1,1.1c0,0.7 0.5,1.1 1.1,1.1z" class="st0"/>
   <path id="svg_103" d="m29.8,29.3c0.6,0 1.1,-0.5 1.1,-1.1c0,-0.6 -0.5,-1.1 -1.1,-1.1c-0.6,0 -1.1,0.5 -1.1,1.1c0,0.7 0.5,1.1 1.1,1.1z" class="st0"/>
   <path id="svg_104" d="m33.2,29.3c0.6,0 1.1,-0.5 1.1,-1.1c0,-0.6 -0.5,-1.1 -1.1,-1.1c-0.6,0 -1.1,0.5 -1.1,1.1c0,0.7 0.5,1.1 1.1,1.1z" class="st0"/>
   <path id="svg_105" d="m36.6,29.3c0.6,0 1.1,-0.5 1.1,-1.1c0,-0.6 -0.5,-1.1 -1.1,-1.1c-0.6,0 -1.1,0.5 -1.1,1.1c0,0.7 0.4,1.1 1.1,1.1z" class="st0"/>
   <path id="svg_106" d="m39.9,29.3c0.6,0 1.1,-0.5 1.1,-1.1c0,-0.6 -0.5,-1.1 -1.1,-1.1c-0.6,0 -1.1,0.5 -1.1,1.1c0,0.7 0.5,1.1 1.1,1.1z" class="st0"/>
   <path stroke="null" id="svg_107" d="m42.2,28.3c0,0.6 0.5,1.1 1.1,1.1c0.6,0 1.1,-0.5 1.1,-1.1c0,-0.6 -0.5,-1.1 -1.1,-1.1c-0.6,0 -1.1,0.5 -1.1,1.1z" class="st0"/>
   <path id="svg_108" d="m46.6,29.3c0.6,0 1.1,-0.5 1.1,-1.1c0,-0.6 -0.5,-1.1 -1.1,-1.1s-1.1,0.5 -1.1,1.1c0.1,0.7 0.5,1.1 1.1,1.1z" class="st0"/>
   <path id="svg_109" d="m50,29.3c0.6,0 1.1,-0.5 1.1,-1.1c0,-0.6 -0.5,-1.1 -1.1,-1.1c-0.6,0 -1.1,0.5 -1.1,1.1c0,0.7 0.5,1.1 1.1,1.1z" class="st0"/>
   <path id="svg_110" d="m53.4,29.3c0.6,0 1.1,-0.5 1.1,-1.1c0,-0.6 -0.5,-1.1 -1.1,-1.1c-0.6,0 -1.1,0.5 -1.1,1.1c0,0.7 0.5,1.1 1.1,1.1z" class="st0"/>
   <path id="svg_111" d="m56.7,27.2c-0.6,0 -1.1,0.5 -1.1,1.1c0,0.6 0.5,1.1 1.1,1.1c0.6,0 1.1,-0.5 1.1,-1.1c0,-0.6 -0.5,-1.1 -1.1,-1.1z" class="st0"/>
   <path id="svg_112" d="m26.5,30.5c-0.6,0 -1.1,0.5 -1.1,1.1c0,0.6 0.5,1.1 1.1,1.1c0.6,0 1.1,-0.5 1.1,-1.1c-0.1,-0.6 -0.5,-1.1 -1.1,-1.1z" class="st0"/>
   <path id="svg_113" d="m29.8,30.5c-0.6,0 -1.1,0.5 -1.1,1.1c0,0.6 0.5,1.1 1.1,1.1c0.6,0 1.1,-0.5 1.1,-1.1c0,-0.6 -0.5,-1.1 -1.1,-1.1z" class="st0"/>
   <path id="svg_114" d="m33.2,30.5c-0.6,0 -1.1,0.5 -1.1,1.1c0,0.6 0.5,1.1 1.1,1.1c0.6,0 1.1,-0.5 1.1,-1.1c0,-0.6 -0.5,-1.1 -1.1,-1.1z" class="st0"/>
   <path id="svg_115" d="m36.6,32.7c0.6,0 1.1,-0.5 1.1,-1.1c0,-0.6 -0.5,-1.1 -1.1,-1.1c-0.6,0 -1.1,0.5 -1.1,1.1c0,0.6 0.4,1.1 1.1,1.1z" class="st0"/>
   <path id="svg_116" d="m39.9,30.5c-0.6,0 -1.1,0.5 -1.1,1.1c0,0.6 0.5,1.1 1.1,1.1c0.6,0 1.1,-0.5 1.1,-1.1c0,-0.6 -0.5,-1.1 -1.1,-1.1z" class="st0"/>
   <path id="svg_117" d="m43.3,32.7c0.6,0 1.1,-0.5 1.1,-1.1c0,-0.6 -0.5,-1.1 -1.1,-1.1c-0.6,0 -1.1,0.5 -1.1,1.1c0,0.6 0.5,1.1 1.1,1.1z" class="st0"/>
   <path id="svg_118" d="m46.6,32.7c0.6,0 1.1,-0.5 1.1,-1.1c0,-0.6 -0.5,-1.1 -1.1,-1.1s-1.1,0.5 -1.1,1.1c0.1,0.6 0.5,1.1 1.1,1.1z" class="st0"/>
   <path id="svg_119" d="m50,32.7c0.6,0 1.1,-0.5 1.1,-1.1c0,-0.6 -0.5,-1.1 -1.1,-1.1c-0.6,0 -1.1,0.5 -1.1,1.1c0,0.6 0.5,1.1 1.1,1.1z" class="st0"/>
   <path id="svg_120" d="m53.4,32.7c0.6,0 1.1,-0.5 1.1,-1.1c0,-0.6 -0.5,-1.1 -1.1,-1.1c-0.6,0 -1.1,0.5 -1.1,1.1c0,0.6 0.5,1.1 1.1,1.1z" class="st0"/>
   <path id="svg_121" d="m26.5,36.1c0.6,0 1.1,-0.5 1.1,-1.1c0,-0.6 -0.5,-1.1 -1.1,-1.1c-0.6,0 -1.1,0.5 -1.1,1.1c0,0.6 0.5,1.1 1.1,1.1z" class="st0"/>
   <path id="svg_122" d="m29.8,36.1c0.6,0 1.1,-0.5 1.1,-1.1c0,-0.6 -0.5,-1.1 -1.1,-1.1c-0.6,0 -1.1,0.5 -1.1,1.1c0,0.6 0.5,1.1 1.1,1.1z" class="st0"/>
   <path id="svg_123" d="m33.2,36.1c0.6,0 1.1,-0.5 1.1,-1.1c0,-0.6 -0.5,-1.1 -1.1,-1.1s-1.1,0.5 -1.1,1.1c0,0.6 0.5,1.1 1.1,1.1z" class="st0"/>
   <path id="svg_124" d="m36.6,36.1c0.6,0 1.1,-0.5 1.1,-1.1c0,-0.6 -0.5,-1.1 -1.1,-1.1c-0.6,0 -1.1,0.5 -1.1,1.1c0,0.6 0.4,1.1 1.1,1.1z" class="st0"/>
   <path id="svg_125" d="m39.9,36.1c0.6,0 1.1,-0.5 1.1,-1.1c0,-0.6 -0.5,-1.1 -1.1,-1.1c-0.6,0 -1.1,0.5 -1.1,1.1c0,0.6 0.5,1.1 1.1,1.1z" class="st0"/>
   <path id="svg_126" d="m43.3,36.1c0.6,0 1.1,-0.5 1.1,-1.1c0,-0.6 -0.5,-1.1 -1.1,-1.1c-0.6,0 -1.1,0.5 -1.1,1.1c0,0.6 0.5,1.1 1.1,1.1z" class="st0"/>
   <path id="svg_127" d="m46.6,36.1c0.6,0 1.1,-0.5 1.1,-1.1c0,-0.6 -0.5,-1.1 -1.1,-1.1s-1.1,0.5 -1.1,1.1c0.1,0.6 0.5,1.1 1.1,1.1z" class="st0"/>
   <path id="svg_128" d="m50,33.9c-0.6,0 -1.1,0.5 -1.1,1.1c0,0.6 0.5,1.1 1.1,1.1c0.6,0 1.1,-0.5 1.1,-1.1c0,-0.6 -0.5,-1.1 -1.1,-1.1z" class="st0"/>
   <path id="svg_129" d="m26.5,37.3c-0.6,0 -1.1,0.5 -1.1,1.1c0,0.6 0.5,1.1 1.1,1.1c0.6,0 1.1,-0.5 1.1,-1.1c-0.1,-0.6 -0.5,-1.1 -1.1,-1.1z" class="st0"/>
   <path id="svg_130" d="m29.8,39.4c0.6,0 1.1,-0.5 1.1,-1.1c0,-0.6 -0.5,-1.1 -1.1,-1.1c-0.6,0 -1.1,0.5 -1.1,1.1c0,0.7 0.5,1.1 1.1,1.1z" class="st0"/>
   <path id="svg_131" d="m33.2,37.3c-0.6,0 -1.1,0.5 -1.1,1.1c0,0.6 0.5,1.1 1.1,1.1c0.6,0 1.1,-0.5 1.1,-1.1c0,-0.6 -0.5,-1.1 -1.1,-1.1z" class="st0"/>
   <path id="svg_132" d="m36.6,37.3c-0.6,0 -1.1,0.5 -1.1,1.1c0,0.6 0.5,1.1 1.1,1.1c0.6,0 1.1,-0.5 1.1,-1.1c-0.1,-0.6 -0.5,-1.1 -1.1,-1.1z" class="st0"/>
   <path id="svg_133" d="m39.9,37.3c-0.6,0 -1.1,0.5 -1.1,1.1c0,0.6 0.5,1.1 1.1,1.1c0.6,0 1.1,-0.5 1.1,-1.1c0,-0.6 -0.5,-1.1 -1.1,-1.1z" class="st0"/>
   <path id="svg_134" d="m43.3,37.3c-0.6,0 -1.1,0.5 -1.1,1.1c0,0.6 0.5,1.1 1.1,1.1c0.6,0 1.1,-0.5 1.1,-1.1c0,-0.6 -0.5,-1.1 -1.1,-1.1z" class="st0"/>
   <path id="svg_135" d="m46.6,37.3c-0.6,0 -1.1,0.5 -1.1,1.1c0,0.6 0.5,1.1 1.1,1.1s1.1,-0.5 1.1,-1.1c0,-0.6 -0.5,-1.1 -1.1,-1.1z" class="st0"/>
   <path id="svg_136" d="m29.8,42.8c0.6,0 1.1,-0.5 1.1,-1.1c0,-0.6 -0.5,-1.1 -1.1,-1.1c-0.6,0 -1.1,0.5 -1.1,1.1c0,0.6 0.5,1.1 1.1,1.1z" class="st0"/>
   <path id="svg_137" d="m33.2,40.6c-0.6,0 -1.1,0.5 -1.1,1.1c0,0.6 0.5,1.1 1.1,1.1c0.6,0 1.1,-0.5 1.1,-1.1c0,-0.6 -0.5,-1.1 -1.1,-1.1z" class="st0"/>
   <path id="svg_138" d="m36.6,40.6c-0.6,0 -1.1,0.5 -1.1,1.1c0,0.6 0.5,1.1 1.1,1.1c0.6,0 1.1,-0.5 1.1,-1.1c-0.1,-0.6 -0.5,-1.1 -1.1,-1.1z" class="st0"/>
   <path id="svg_139" d="m39.9,40.6c-0.6,0 -1.1,0.5 -1.1,1.1c0,0.6 0.5,1.1 1.1,1.1c0.6,0 1.1,-0.5 1.1,-1.1c0,-0.6 -0.5,-1.1 -1.1,-1.1z" class="st0"/>
   <path id="svg_140" d="m43.3,40.6c-0.6,0 -1.1,0.5 -1.1,1.1c0,0.6 0.5,1.1 1.1,1.1c0.6,0 1.1,-0.5 1.1,-1.1c0,-0.6 -0.5,-1.1 -1.1,-1.1z" class="st0"/>
   <path id="svg_141" d="m46.6,40.6c-0.6,0 -1.1,0.5 -1.1,1.1c0,0.6 0.5,1.1 1.1,1.1s1.1,-0.5 1.1,-1.1c0,-0.6 -0.5,-1.1 -1.1,-1.1z" class="st0"/>
   <path id="svg_142" d="m50,40.6c-0.6,0 -1.1,0.5 -1.1,1.1c0,0.6 0.5,1.1 1.1,1.1c0.6,0 1.1,-0.5 1.1,-1.1c0,-0.6 -0.5,-1.1 -1.1,-1.1z" class="st0"/>
   <path id="svg_143" d="m26.5,44c-0.6,0 -1.1,0.5 -1.1,1.1c0,0.6 0.5,1.1 1.1,1.1c0.6,0 1.1,-0.5 1.1,-1.1c-0.1,-0.6 -0.5,-1.1 -1.1,-1.1z" class="st0"/>
   <path id="svg_144" d="m29.8,46.2c0.6,0 1.1,-0.5 1.1,-1.1c0,-0.6 -0.5,-1.1 -1.1,-1.1c-0.6,0 -1.1,0.5 -1.1,1.1c0,0.6 0.5,1.1 1.1,1.1z" class="st0"/>
   <path id="svg_145" d="m33.2,44c-0.6,0 -1.1,0.5 -1.1,1.1c0,0.6 0.5,1.1 1.1,1.1c0.6,0 1.1,-0.5 1.1,-1.1c0,-0.6 -0.5,-1.1 -1.1,-1.1z" class="st0"/>
   <path id="svg_146" d="m36.6,44c-0.6,0 -1.1,0.5 -1.1,1.1c0,0.6 0.5,1.1 1.1,1.1c0.6,0 1.1,-0.5 1.1,-1.1c-0.1,-0.6 -0.5,-1.1 -1.1,-1.1z" class="st0"/>
   <path id="svg_147" d="m39.9,44c-0.6,0 -1.1,0.5 -1.1,1.1c0,0.6 0.5,1.1 1.1,1.1c0.6,0 1.1,-0.5 1.1,-1.1c0,-0.6 -0.5,-1.1 -1.1,-1.1z" class="st0"/>
   <path id="svg_148" d="m43.3,44c-0.6,0 -1.1,0.5 -1.1,1.1c0,0.6 0.5,1.1 1.1,1.1c0.6,0 1.1,-0.5 1.1,-1.1c0,-0.6 -0.5,-1.1 -1.1,-1.1z" class="st0"/>
   <path id="svg_149" d="m46.6,46.2c0.6,0 1.1,-0.5 1.1,-1.1c0,-0.6 -0.5,-1.1 -1.1,-1.1c-0.6,0 -1.1,0.5 -1.1,1.1c0.1,0.6 0.5,1.1 1.1,1.1z" class="st0"/>
   <path id="svg_150" d="m50,44c-0.6,0 -1.1,0.5 -1.1,1.1c0,0.6 0.5,1.1 1.1,1.1c0.6,0 1.1,-0.5 1.1,-1.1c0,-0.6 -0.5,-1.1 -1.1,-1.1z" class="st0"/>
   <path id="svg_151" d="m26.5,47.4c-0.6,0 -1.1,0.5 -1.1,1.1c0,0.6 0.5,1.1 1.1,1.1c0.6,0 1.1,-0.5 1.1,-1.1c-0.1,-0.7 -0.5,-1.1 -1.1,-1.1z" class="st0"/>
   <path id="svg_152" d="m29.8,49.5c0.6,0 1.1,-0.5 1.1,-1.1c0,-0.6 -0.5,-1.1 -1.1,-1.1c-0.6,0 -1.1,0.5 -1.1,1.1c0,0.7 0.5,1.1 1.1,1.1z" class="st0"/>
   <path id="svg_153" d="m33.2,49.5c0.6,0 1.1,-0.5 1.1,-1.1c0,-0.6 -0.5,-1.1 -1.1,-1.1c-0.6,0 -1.1,0.5 -1.1,1.1c0,0.7 0.5,1.1 1.1,1.1z" class="st0"/>
   <path id="svg_154" d="m36.6,49.5c0.6,0 1.1,-0.5 1.1,-1.1c0,-0.6 -0.5,-1.1 -1.1,-1.1c-0.6,0 -1.1,0.5 -1.1,1.1c0,0.7 0.4,1.1 1.1,1.1z" class="st0"/>
   <path id="svg_155" d="m39.9,47.4c-0.6,0 -1.1,0.5 -1.1,1.1c0,0.6 0.5,1.1 1.1,1.1c0.6,0 1.1,-0.5 1.1,-1.1c0,-0.7 -0.5,-1.1 -1.1,-1.1z" class="st0"/>
   <path id="svg_156" d="m43.3,49.5c0.6,0 1.1,-0.5 1.1,-1.1c0,-0.6 -0.5,-1.1 -1.1,-1.1c-0.6,0 -1.1,0.5 -1.1,1.1c0,0.7 0.5,1.1 1.1,1.1z" class="st0"/>
   <path id="svg_157" d="m46.6,47.4c-0.6,0 -1.1,0.5 -1.1,1.1c0,0.6 0.5,1.1 1.1,1.1s1.1,-0.5 1.1,-1.1c0,-0.7 -0.5,-1.1 -1.1,-1.1z" class="st0"/>
   <path id="svg_158" d="m29.8,52.9c0.6,0 1.1,-0.5 1.1,-1.1c0,-0.6 -0.5,-1.1 -1.1,-1.1c-0.6,0 -1.1,0.5 -1.1,1.1c0,0.6 0.5,1.1 1.1,1.1z" class="st0"/>
   <path id="svg_159" d="m33.2,52.9c0.6,0 1.1,-0.5 1.1,-1.1c0,-0.6 -0.5,-1.1 -1.1,-1.1c-0.6,0 -1.1,0.5 -1.1,1.1c0,0.6 0.5,1.1 1.1,1.1z" class="st0"/>
   <path id="svg_160" d="m36.6,52.9c0.6,0 1.1,-0.5 1.1,-1.1c0,-0.6 -0.5,-1.1 -1.1,-1.1c-0.6,0 -1.1,0.5 -1.1,1.1c0,0.6 0.4,1.1 1.1,1.1z" class="st0"/>
   <path id="svg_161" d="m39.9,52.9c0.6,0 1.1,-0.5 1.1,-1.1c0,-0.6 -0.5,-1.1 -1.1,-1.1c-0.6,0 -1.1,0.5 -1.1,1.1c0,0.6 0.5,1.1 1.1,1.1z" class="st0"/>
   <path id="svg_162" d="m43.3,52.9c0.6,0 1.1,-0.5 1.1,-1.1c0,-0.6 -0.5,-1.1 -1.1,-1.1c-0.6,0 -1.1,0.5 -1.1,1.1c0,0.6 0.5,1.1 1.1,1.1z" class="st0"/>
   <path id="svg_163" d="m29.8,54.1c-0.6,0 -1.1,0.5 -1.1,1.1c0,0.6 0.5,1.1 1.1,1.1c0.6,0 1.1,-0.5 1.1,-1.1c0,-0.6 -0.5,-1.1 -1.1,-1.1z" class="st0"/>
   <path id="svg_164" d="m33.2,56.3c0.6,0 1.1,-0.5 1.1,-1.1c0,-0.6 -0.5,-1.1 -1.1,-1.1c-0.6,0 -1.1,0.5 -1.1,1.1c0,0.6 0.5,1.1 1.1,1.1z" class="st0"/>
   <path id="svg_165" d="m36.6,56.3c0.6,0 1.1,-0.5 1.1,-1.1c0,-0.6 -0.5,-1.1 -1.1,-1.1c-0.6,0 -1.1,0.5 -1.1,1.1c0,0.6 0.4,1.1 1.1,1.1z" class="st0"/>
   <path id="svg_166" d="m39.9,56.3c0.6,0 1.1,-0.5 1.1,-1.1c0,-0.6 -0.5,-1.1 -1.1,-1.1c-0.6,0 -1.1,0.5 -1.1,1.1c0,0.6 0.5,1.1 1.1,1.1z" class="st0"/>
   <path id="svg_167" d="m43.3,54.1c-0.6,0 -1.1,0.5 -1.1,1.1c0,0.6 0.5,1.1 1.1,1.1c0.6,0 1.1,-0.5 1.1,-1.1c0,-0.6 -0.5,-1.1 -1.1,-1.1z" class="st0"/>
   <path id="svg_168" d="m33.2,57.5c-0.6,0 -1.1,0.5 -1.1,1.1c0,0.6 0.5,1.1 1.1,1.1c0.6,0 1.1,-0.5 1.1,-1.1c0,-0.7 -0.5,-1.1 -1.1,-1.1z" class="st0"/>
   <path id="svg_169" d="m36.6,59.6c0.6,0 1.1,-0.5 1.1,-1.1c0,-0.6 -0.5,-1.1 -1.1,-1.1c-0.6,0 -1.1,0.5 -1.1,1.1c0,0.6 0.4,1.1 1.1,1.1z" class="st0"/>
   <path id="svg_170" d="m39.9,59.6c0.6,0 1.1,-0.5 1.1,-1.1c0,-0.6 -0.5,-1.1 -1.1,-1.1c-0.6,0 -1.1,0.5 -1.1,1.1c0,0.6 0.5,1.1 1.1,1.1z" class="st0"/>
   <path id="svg_171" d="m33.2,60.8c-0.6,0 -1.1,0.5 -1.1,1.1c0,0.6 0.5,1.1 1.1,1.1c0.6,0 1.1,-0.5 1.1,-1.1c0,-0.6 -0.5,-1.1 -1.1,-1.1z" class="st0"/>
   <path id="svg_172" d="m36.6,60.8c-0.6,0 -1.1,0.5 -1.1,1.1c0,0.6 0.5,1.1 1.1,1.1c0.6,0 1.1,-0.5 1.1,-1.1c-0.1,-0.6 -0.5,-1.1 -1.1,-1.1z" class="st0"/>
   <path id="svg_173" d="m39.9,60.8c-0.6,0 -1.1,0.5 -1.1,1.1c0,0.6 0.5,1.1 1.1,1.1c0.6,0 1.1,-0.5 1.1,-1.1c0,-0.6 -0.5,-1.1 -1.1,-1.1z" class="st0"/>
  </g>
 </g>
</svg>